<svg viewBox="0 0 30 30" fill="none" xmlns="http://www.w3.org/2000/svg">
<path d="M4.7832 21.2939L5.33629 20.9525L5.49207 21.2048L5.40361 21.4879L4.7832 21.2939ZM3.56934 25.1777L2.94892 24.9839L2.94893 24.9838L3.56934 25.1777ZM4.82227 26.4307L5.01617 27.0511L5.01614 27.0511L4.82227 26.4307ZM8.70605 25.2168L8.51215 24.5964L8.79518 24.5079L9.04751 24.6637L8.70605 25.2168ZM15 3V3.65C8.73157 3.65 3.65 8.73157 3.65 15H3H2.35C2.35 8.0136 8.0136 2.35 15 2.35V3ZM3 15H3.65C3.65 17.1842 4.26788 19.2218 5.33629 20.9525L4.7832 21.2939L4.23011 21.6354C3.03901 19.706 2.35 17.433 2.35 15H3ZM4.7832 21.2939L5.40361 21.4879L4.18974 25.3716L3.56934 25.1777L2.94893 24.9838L4.1628 21.1L4.7832 21.2939ZM3.56934 25.1777L4.18975 25.3716C4.10552 25.6411 4.35887 25.8945 4.62839 25.8103L4.82227 26.4307L5.01614 27.0511C3.74558 27.4481 2.55187 26.2544 2.94892 24.9839L3.56934 25.1777ZM4.82227 26.4307L4.62836 25.8103L8.51215 24.5964L8.70605 25.2168L8.89996 25.8372L5.01617 27.0511L4.82227 26.4307ZM8.70605 25.2168L9.04751 24.6637C10.7782 25.7321 12.8158 26.35 15 26.35V27V27.65C12.567 27.65 10.294 26.961 8.3646 25.7699L8.70605 25.2168ZM15 27V26.35C21.2684 26.35 26.35 21.2684 26.35 15H27H27.65C27.65 21.9864 21.9864 27.65 15 27.65V27ZM27 15H26.35C26.35 8.73157 21.2684 3.65 15 3.65V3V2.35C21.9864 2.35 27.65 8.0136 27.65 15H27Z" fill="currentColor"/>
<path d="M9 12.2308H21" stroke="currentColor" stroke-width="1.3" stroke-linecap="round"/>
<path d="M9.46094 17.7692H18.6917" stroke="currentColor" stroke-width="1.3" stroke-linecap="round"/>
</svg>
