<svg viewBox="0 0 30 30" fill="none" xmlns="http://www.w3.org/2000/svg">
<path d="M7 12.5H20" stroke="currentColor" stroke-width="1.3" stroke-linecap="round"/>
<path d="M7 16H12" stroke="currentColor" stroke-width="1.3" stroke-linecap="round"/>
<path d="M9 5V3" stroke="currentColor" stroke-width="1.3" stroke-linecap="round"/>
<path d="M21 5V3" stroke="currentColor" stroke-width="1.3" stroke-linecap="round"/>
<path d="M4.5 9H26" stroke="currentColor" stroke-width="1.3" stroke-linecap="round" stroke-linejoin="round"/>
<path d="M25 5C26.1046 5 27 5.89543 27 7V18.0381C26.6447 17.4748 26.2061 16.9699 25.7002 16.541V7C25.7002 6.6134 25.3866 6.2998 25 6.2998H5C4.6134 6.2998 4.2998 6.6134 4.2998 7V25C4.2998 25.3866 4.6134 25.7002 5 25.7002H16.541C16.9699 26.2061 17.4748 26.6447 18.0381 27H5L4.7959 26.9893C3.85435 26.8938 3.1062 26.1457 3.01074 25.2041L3 25V7C3 5.89543 3.89543 5 5 5H25Z" fill="currentColor"/>
<circle cx="21.5" cy="21.5" r="5.75" stroke="currentColor" stroke-width="1.5"/>
<path d="M19.3333 21.5L20.7451 22.6295C21.1661 22.9662 21.7782 22.9087 22.1291 22.4994L24.1 20.2" stroke="currentColor" stroke-width="1.5" stroke-linecap="round"/>
</svg>
