<svg viewBox="0 0 30 30" fill="none" xmlns="http://www.w3.org/2000/svg">
<path d="M3 4.72131C3 4.32294 3.32294 4 3.72131 4L18.1622 4C18.3762 4 18.5792 4.09509 18.7163 4.25954L20.5988 6.5185C20.8289 6.79466 20.8205 7.19811 20.5792 7.46453L18.7147 9.52283C18.578 9.67378 18.3838 9.75989 18.1801 9.75989L3.72131 9.75989C3.32294 9.75989 3 9.43695 3 9.03858L3 4.72131Z" stroke="currentColor" stroke-width="1.3"/>
<path d="M3.68359 12.2441L8.40491 17.764" stroke="currentColor" stroke-width="1.3" stroke-linecap="round"/>
<path d="M11.0859 12.2441L15.8072 17.764" stroke="currentColor" stroke-width="1.3" stroke-linecap="round"/>
<path d="M3 12.7213C3 12.3229 3.32294 12 3.72131 12L23.6622 12C23.8762 12 24.0792 12.0951 24.2163 12.2595L26.1152 14.5382C26.3381 14.8057 26.3381 15.1943 26.1152 15.4618L24.2163 17.7405C24.0792 17.9049 23.8762 18 23.6622 18L3.72131 18C3.32294 18 3 17.6771 3 17.2787L3 12.7213Z" stroke="currentColor" stroke-width="1.3"/>
<path d="M3 20.7213C3 20.3229 3.32294 20 3.72131 20H12.1622C12.3762 20 12.5792 20.0951 12.7163 20.2595L14.5988 22.5185C14.8289 22.7947 14.8205 23.1981 14.5792 23.4645L12.7147 25.5228C12.578 25.6738 12.3838 25.7599 12.1801 25.7599H3.72131C3.32294 25.7599 3 25.4369 3 25.0386L3 20.7213Z" stroke="currentColor" stroke-width="1.3"/>
</svg>
