<svg width="100" height="40" viewBox="0 0 100 40" fill="none" xmlns="http://www.w3.org/2000/svg">
<g clip-path="url(#clip0_1051_3593)">
<path d="M19.5158 19.2073C19.2985 19.4667 19.0729 19.7271 18.8382 19.9875C18.8351 19.9916 18.831 19.9967 18.8279 19.9998C18.2999 20.5883 17.7309 21.1809 17.125 21.7724C16.9005 21.9908 16.6718 22.2092 16.4371 22.4275C15.9234 22.9043 15.3862 23.379 14.8285 23.8475C14.7178 23.9398 14.6081 24.032 14.4973 24.1212C13.8155 23.665 13.0938 23.1462 12.3628 22.5875C12.6417 22.364 12.9195 22.1354 13.1963 21.9037C13.6915 21.4874 14.1754 21.066 14.645 20.6406C14.8808 20.4273 15.1114 20.213 15.339 19.9998C15.9726 19.4031 16.5714 18.8085 17.125 18.2272C17.1281 18.2231 17.1322 18.22 17.1353 18.2159C17.3772 17.9616 17.6089 17.7105 17.8324 17.4634C19.9864 15.0736 21.229 13.0415 20.6764 12.3833C20.2714 11.9005 18.9745 12.2388 17.2378 13.1246C17.2388 13.1102 17.2388 13.0959 17.2388 13.0815C17.2388 12.2603 16.8513 11.5283 16.2484 11.0598C19.2903 9.71056 21.7406 9.46552 22.7371 10.6538C23.9951 12.1527 22.6038 15.5339 19.5158 19.2073Z" fill="url(#paint0_linear_1051_3593)"/>
<path d="M10.835 17.4108C10.5561 17.6343 10.2783 17.8629 10.0015 18.0946C9.5063 18.5108 9.02239 18.9322 8.55283 19.3577C8.31703 19.5709 8.08635 19.7852 7.85875 19.9984C7.22516 20.5941 6.62642 21.1898 6.07279 21.7711C6.06972 21.7752 6.06562 21.7782 6.06254 21.7823C5.82059 22.0366 5.58888 22.2868 5.36538 22.5349C3.21137 24.9237 1.96878 26.9557 2.52139 27.6149C2.94071 28.1142 4.31759 27.7338 6.14763 26.7763C6.13328 26.8798 6.12713 26.9854 6.12713 27.0931C6.12713 27.823 6.43368 28.4822 6.92476 28.9487C3.89417 30.2887 1.45514 30.5296 0.460666 29.3445C-0.797295 27.8445 0.593947 24.4644 3.68195 20.7899C3.8993 20.5316 4.12485 20.2712 4.35963 20.0107C4.3627 20.0066 4.3668 20.0015 4.36988 19.9984C4.89788 19.41 5.46688 18.8174 6.07279 18.2258C6.29732 18.0074 6.52595 17.7891 6.76072 17.5707C7.27437 17.0929 7.81159 16.6182 8.36932 16.1497C8.48004 16.0574 8.58974 15.9662 8.70047 15.876C9.38225 16.3332 10.104 16.852 10.835 17.4108Z" fill="url(#paint1_linear_1051_3593)"/>
<path d="M15.1071 11.6045C14.9707 11.5645 14.8262 11.543 14.6775 11.543C13.9691 11.543 13.3734 12.0207 13.195 12.6718C13.1591 12.802 13.1396 12.9393 13.1396 13.0808C13.1396 13.25 13.1673 13.413 13.2176 13.5658C13.4124 14.1522 13.9506 14.5828 14.5955 14.6166C14.6221 14.6176 14.6498 14.6187 14.6775 14.6187H14.6826C15.2783 14.6166 15.795 14.2752 16.0482 13.777C16.1549 13.5678 16.2153 13.331 16.2153 13.0808C16.2153 12.3806 15.7468 11.79 15.1071 11.6045Z" fill="#A671ED"/>
<path d="M8.8347 25.5628C8.78754 25.5577 8.73936 25.5557 8.69117 25.5557C7.84125 25.5557 7.15332 26.2436 7.15332 27.0935C7.15332 27.683 7.4855 28.1956 7.97351 28.454C8.18778 28.5668 8.43179 28.6314 8.69117 28.6314C9.50726 28.6314 10.1757 27.9947 10.2259 27.1909C10.228 27.1591 10.229 27.1263 10.229 27.0935C10.229 26.8956 10.1921 26.708 10.1234 26.5348C9.91735 26.0037 9.42421 25.6172 8.8347 25.5628Z" fill="#A671ED"/>
<path d="M14.6445 19.3578C14.176 18.9333 13.6921 18.5109 13.1969 18.0947C12.9201 17.862 12.6412 17.6333 12.3624 17.4098C12.1081 17.2058 11.8538 17.0049 11.5996 16.809C10.8829 16.2564 10.1684 15.7346 9.47222 15.2558C9.46812 15.2527 9.46299 15.2497 9.45889 15.2466C9.15645 15.0385 8.85708 14.8385 8.56284 14.6479C5.59171 12.7173 3.11168 11.6798 2.52114 12.3821C1.96854 13.0413 3.21317 15.0743 5.36514 17.4642C4.77153 18.0414 4.2097 18.6237 3.6817 19.2071C0.593702 15.5337 -0.797539 12.1535 0.460422 10.6535C1.83936 9.00907 6.00078 10.1112 10.6615 13.0813C10.968 13.2751 11.2746 13.4791 11.5842 13.6893C11.5893 13.6923 11.5934 13.6954 11.5996 13.6995C12.3029 14.1783 13.0144 14.6991 13.7259 15.2568C13.9843 15.4578 14.2406 15.6639 14.4979 15.8751C14.6086 15.9653 14.7194 16.0575 14.8291 16.1498C15.3878 16.6194 15.925 17.093 16.4377 17.5718C15.9004 18.1429 15.2955 18.7467 14.6445 19.3567V19.3578Z" fill="url(#paint2_linear_1051_3593)"/>
<path d="M8.5547 20.6403C9.02323 21.0647 9.50714 21.4871 10.0023 21.9034C10.2791 22.1361 10.558 22.3647 10.8369 22.5882C11.0911 22.7922 11.3454 22.9932 11.5996 23.189C12.3163 23.7416 13.0309 24.2634 13.727 24.7422C13.7311 24.7453 13.7362 24.7484 13.7403 24.7515C14.0428 24.9596 14.3421 25.1595 14.6364 25.3502C17.6075 27.2807 20.0875 28.3182 20.6781 27.616C21.2307 26.9567 19.986 24.9237 17.8341 22.5339C18.4277 21.9567 18.9895 21.3743 19.5175 20.791C22.6055 24.4644 23.9968 27.8446 22.7388 29.3445C21.3599 30.989 17.1984 29.8869 12.5377 26.9167C12.2312 26.723 11.9246 26.519 11.615 26.3088C11.6099 26.3057 11.6058 26.3026 11.5996 26.2985C10.8963 25.8198 10.1848 25.2989 9.4733 24.7412C9.21495 24.5403 8.95864 24.3342 8.7013 24.123C8.59058 24.0328 8.47985 23.9405 8.37016 23.8482C7.8114 23.3787 7.27418 22.905 6.76156 22.4262C7.29879 21.8552 7.90367 21.2513 8.5547 20.6413V20.6403Z" fill="url(#paint3_linear_1051_3593)"/>
</g>
<path d="M33.2 27.9988V13.5915C33.2 12.7125 33.9125 12 34.7915 12H37.0227L45.1862 23.0091V12H48.5242V26.4073C48.5242 27.2862 47.8117 27.9988 46.9327 27.9988H44.7014L36.5379 16.9896V27.9988H33.2Z" fill="#5F0EC8"/>
<path d="M52.9477 27.9988C52.0687 27.9988 51.3562 27.2862 51.3562 26.4073V13.5915C51.3562 12.7125 52.0687 12 52.9477 12H65.5211V15.0602H54.6942V18.3611H64.9309V21.3601H54.6942V24.7105H65.5211V27.203C65.5211 27.6425 65.1648 27.9988 64.7254 27.9988H52.9477Z" fill="#5F0EC8"/>
<path d="M67.6934 13.5917V26.4085C67.6934 27.2875 68.4059 28 69.2849 28H81.6949C82.1344 28 82.4906 27.6437 82.4906 27.2042V24.7117H70.932V15.0614H82.4906V12.0012L69.285 12.0001C68.406 12.0001 67.6934 12.7126 67.6934 13.5917Z" fill="#5F0EC8"/>
<path d="M84.6113 15.0602V13.5915C84.6113 12.7125 85.3239 12 86.2028 12H99.8934V14.2644C99.8934 14.7039 99.5371 15.0602 99.0977 15.0602H94.1464V27.203C94.1464 27.6425 93.7902 27.9988 93.3507 27.9988H90.3794V15.0602H84.6113Z" fill="#5F0EC8"/>
<defs>
<linearGradient id="paint0_linear_1051_3593" x1="17.7808" y1="9.88965" x2="17.7808" y2="24.1212" gradientUnits="userSpaceOnUse">
<stop stop-color="#660FD8"/>
<stop offset="1" stop-color="#9A5CEB"/>
</linearGradient>
<linearGradient id="paint1_linear_1051_3593" x1="5.41701" y1="15.876" x2="5.41701" y2="30.1085" gradientUnits="userSpaceOnUse">
<stop stop-color="#660FD8"/>
<stop offset="1" stop-color="#9A5CEB"/>
</linearGradient>
<linearGradient id="paint2_linear_1051_3593" x1="-0.000727034" y1="19.3578" x2="16.1758" y2="19.3578" gradientUnits="userSpaceOnUse">
<stop stop-color="#D0B5F3"/>
<stop offset="1" stop-color="#9A5CEB"/>
</linearGradient>
<linearGradient id="paint3_linear_1051_3593" x1="23.1999" y1="20.6403" x2="7.02341" y2="20.6403" gradientUnits="userSpaceOnUse">
<stop stop-color="#D0B5F3"/>
<stop offset="1" stop-color="#9A5CEB"/>
</linearGradient>
<clipPath id="clip0_1051_3593">
<rect width="23.2" height="20.2207" fill="white" transform="translate(0 9.88965)"/>
</clipPath>
</defs>
</svg>
