<svg width="15" height="16" viewBox="0 0 15 16" fill="none" xmlns="http://www.w3.org/2000/svg">
<path d="M13.1242 4.04868L8.22432 1.00612C7.95623 0.838742 7.64652 0.75 7.33047 0.75C7.01442 0.75 6.70472 0.838742 6.43663 1.00612L1.53751 4.06609C1.25895 4.24175 1.03786 4.49507 0.901496 4.79483C0.76513 5.0946 0.719439 5.42771 0.770055 5.75312L2.034 13.3421C2.10081 13.7394 2.30752 14.0997 2.61678 14.3578C2.92604 14.616 3.31745 14.7551 3.72027 14.7498H10.9725C11.3754 14.7552 11.767 14.6163 12.0764 14.3581C12.3858 14.0999 12.5927 13.7395 12.6595 13.3421L13.9234 5.75312C13.9743 5.42172 13.9253 5.08269 13.7826 4.77927C13.64 4.47584 13.4103 4.22176 13.1227 4.04944" stroke="currentColor" stroke-width="1.5" stroke-linecap="round" stroke-linejoin="round"/>
<path d="M4.45223 8.43683L6.08174 10.0663C6.13904 10.1243 6.20728 10.1704 6.2825 10.2018C6.35773 10.2332 6.43844 10.2494 6.51996 10.2494C6.60148 10.2494 6.68219 10.2332 6.75742 10.2018C6.83264 10.1704 6.90088 10.1243 6.95818 10.0663L10.2429 6.78235" stroke="currentColor" stroke-width="1.5" stroke-linecap="round" stroke-linejoin="round"/>
</svg>