<svg width="200" height="200" viewBox="0 0 200 200" fill="none" xmlns="http://www.w3.org/2000/svg">
<rect width="200" height="200" rx="45.5" fill="white"/>
<g clip-path="url(#clip0_178_945)">
<path d="M147.254 95.2935C145.97 96.8329 144.638 98.3783 143.252 99.9237C143.234 99.948 143.209 99.9784 143.191 99.9967C140.073 103.489 136.713 107.006 133.135 110.516C131.809 111.812 130.459 113.108 129.073 114.404C126.04 117.233 122.867 120.05 119.574 122.831C118.92 123.379 118.272 123.926 117.618 124.455C113.592 121.748 109.33 118.669 105.014 115.353C106.66 114.027 108.301 112.67 109.936 111.295C112.86 108.825 115.717 106.324 118.49 103.799C119.883 102.534 121.245 101.262 122.589 99.9967C126.33 96.4556 129.866 92.9268 133.135 89.477C133.153 89.4526 133.178 89.4344 133.196 89.41C134.625 87.9012 135.993 86.4105 137.313 84.9442C150.033 70.7618 157.37 58.7028 154.107 54.7967C151.716 51.931 144.057 53.9388 133.801 59.1956C133.807 59.1104 133.807 59.0252 133.807 58.94C133.807 54.0665 131.519 49.7224 127.959 46.9419C145.922 38.935 160.391 37.4808 166.276 44.5325C173.704 53.4277 165.489 73.4936 147.254 95.2935Z" fill="url(#paint0_linear_178_945)"/>
<path d="M95.9937 84.6401C94.3469 85.9665 92.7063 87.3233 91.0716 88.6983C88.1475 91.1685 85.2899 93.6692 82.5171 96.1942C81.1246 97.4597 79.7624 98.7313 78.4184 99.9968C74.6769 103.532 71.1413 107.067 67.872 110.517C67.8539 110.541 67.8296 110.559 67.8115 110.583C66.3827 112.092 65.0145 113.577 63.6946 115.049C50.9748 129.226 43.6371 141.285 46.9004 145.197C49.3765 148.16 57.5073 145.903 68.314 140.22C68.2292 140.834 68.1929 141.461 68.1929 142.1C68.1929 146.432 70.0031 150.344 72.903 153.112C55.0069 161.065 40.604 162.494 34.7315 155.461C27.303 146.56 35.5185 126.5 53.7537 104.694C55.0372 103.161 56.3691 101.615 57.7555 100.07C57.7737 100.045 57.7979 100.015 57.816 99.9968C60.9339 96.5044 64.294 92.9877 67.872 89.4771C69.1979 88.1812 70.548 86.8852 71.9344 85.5893C74.9675 82.754 78.1399 79.937 81.4334 77.1565C82.0872 76.6089 82.735 76.0674 83.3889 75.532C87.4149 78.2456 91.6771 81.3242 95.9937 84.6401Z" fill="url(#paint1_linear_178_945)"/>
<path d="M121.208 50.1788C120.403 49.9415 119.549 49.8137 118.672 49.8137C114.488 49.8137 110.971 52.649 109.917 56.5125C109.705 57.2852 109.59 58.1005 109.59 58.9401C109.59 59.944 109.754 60.9114 110.05 61.818C111.201 65.2982 114.379 67.8536 118.187 68.0544C118.345 68.0604 118.508 68.0665 118.672 68.0665H118.702C122.219 68.0544 125.271 66.0283 126.766 63.0713C127.396 61.8301 127.753 60.4247 127.753 58.9401C127.753 54.7846 124.986 51.28 121.208 50.1788Z" fill="#A671ED"/>
<path d="M84.1754 133.016C83.8969 132.986 83.6124 132.974 83.3278 132.974C78.3089 132.974 74.2466 137.056 74.2466 142.1C74.2466 145.598 76.2081 148.641 79.0899 150.174C80.3552 150.843 81.7961 151.226 83.3278 151.226C88.147 151.226 92.0943 147.448 92.391 142.678C92.4031 142.489 92.4091 142.295 92.4091 142.1C92.4091 140.926 92.1912 139.812 91.7855 138.784C90.5686 135.632 87.6566 133.339 84.1754 133.016Z" fill="#A671ED"/>
<path d="M118.479 96.1881C115.713 93.6692 112.855 91.1624 109.931 88.6922C108.296 87.3111 106.649 85.9543 105.003 84.6279C103.501 83.4172 102 82.2247 100.498 81.0626C96.2665 77.7831 92.0467 74.6863 87.936 71.8449C87.9117 71.8266 87.8815 71.8084 87.8573 71.7901C86.0713 70.555 84.3035 69.3686 82.5659 68.2369C65.0209 56.7803 50.3758 50.623 46.8886 54.7907C43.6254 58.7029 50.9752 70.768 63.6829 84.9504C60.1776 88.3759 56.8599 91.8317 53.742 95.2937C35.5068 73.4937 27.2913 53.4339 34.7197 44.5326C42.8626 34.7735 67.4365 41.3141 94.9588 58.9402C96.769 60.0901 98.5792 61.3009 100.408 62.5481C100.438 62.5664 100.462 62.5846 100.498 62.609C104.652 65.4503 108.853 68.5411 113.055 71.851C114.58 73.0435 116.094 74.2664 117.614 75.5198C118.267 76.0552 118.921 76.6028 119.569 77.1504C122.869 79.937 126.041 82.7479 129.068 85.5893C125.896 88.9782 122.324 92.5618 118.479 96.182V96.1881Z" fill="url(#paint2_linear_178_945)"/>
<path d="M82.5168 103.803C85.2836 106.322 88.1411 108.829 91.0653 111.299C92.6999 112.68 94.3467 114.037 95.9934 115.363C97.4948 116.574 98.9963 117.767 100.498 118.929C104.73 122.208 108.949 125.305 113.06 128.146C113.084 128.165 113.115 128.183 113.139 128.201C114.925 129.436 116.693 130.623 118.43 131.754C135.975 143.211 150.62 149.368 154.107 145.201C157.371 141.288 150.021 129.223 137.313 115.041C140.819 111.615 144.136 108.159 147.254 104.698C165.489 126.497 173.705 146.557 166.276 155.459C158.133 165.218 133.56 158.677 106.037 141.051C104.227 139.901 102.417 138.69 100.589 137.443C100.558 137.425 100.534 137.407 100.498 137.382C96.3446 134.541 92.143 131.45 87.9414 128.14C86.4157 126.948 84.9022 125.725 83.3826 124.471C82.7287 123.936 82.0749 123.388 81.4271 122.841C78.1275 120.054 74.9551 117.243 71.9281 114.402C75.1004 111.013 78.6724 107.429 82.5168 103.809V103.803Z" fill="url(#paint3_linear_178_945)"/>
</g>
<defs>
<linearGradient id="paint0_linear_178_945" x1="137.008" y1="39.9978" x2="137.008" y2="124.455" gradientUnits="userSpaceOnUse">
<stop stop-color="#660FD8"/>
<stop offset="1" stop-color="#9A5CEB"/>
</linearGradient>
<linearGradient id="paint1_linear_178_945" x1="63.9995" y1="75.532" x2="63.9995" y2="159.995" gradientUnits="userSpaceOnUse">
<stop stop-color="#660FD8"/>
<stop offset="1" stop-color="#9A5CEB"/>
</linearGradient>
<linearGradient id="paint2_linear_178_945" x1="31.9966" y1="96.1881" x2="127.522" y2="96.1881" gradientUnits="userSpaceOnUse">
<stop stop-color="#D0B5F3"/>
<stop offset="1" stop-color="#9A5CEB"/>
</linearGradient>
<linearGradient id="paint3_linear_178_945" x1="169" y1="103.803" x2="73.4743" y2="103.803" gradientUnits="userSpaceOnUse">
<stop stop-color="#D0B5F3"/>
<stop offset="1" stop-color="#9A5CEB"/>
</linearGradient>
<clipPath id="clip0_178_945">
<rect width="137" height="120" fill="white" transform="translate(32 40)"/>
</clipPath>
</defs>
</svg>
