<svg width="22" height="22" viewBox="0 0 22 22" fill="none" xmlns="http://www.w3.org/2000/svg">
<g clip-path="url(#clip0_1283_13099)">
<mask id="mask0_1283_13099" style="mask-type:luminance" maskUnits="userSpaceOnUse" x="0" y="4" width="8" height="14">
<path d="M0.6875 4.73633H7.83755V17.1202H0.6875V4.73633Z" fill="white"/>
</mask>
<g mask="url(#mask0_1283_13099)">
<mask id="mask1_1283_13099" style="mask-type:luminance" maskUnits="userSpaceOnUse" x="0" y="0" width="22" height="22">
<path d="M20.9088 9.0226H11.155V13.0665H16.7694C16.246 15.6356 14.0574 17.1105 11.155 17.1105C7.72931 17.1105 4.96968 14.3511 4.96968 10.9256C4.96968 7.50017 7.72931 4.74076 11.155 4.74076C12.63 4.74076 13.9622 5.26412 15.0089 6.12046L18.054 3.07565C16.1984 1.45806 13.8195 0.458984 11.155 0.458984C5.3503 0.458984 0.6875 5.12139 0.6875 10.9256C0.6875 16.7299 5.3503 21.3923 11.155 21.3923C16.3888 21.3923 21.1467 17.5862 21.1467 10.9256C21.1467 10.3071 21.0516 9.64106 20.9088 9.0226Z" fill="white"/>
</mask>
<g mask="url(#mask1_1283_13099)">
<path d="M-0.263672 17.1119V4.74219L7.82485 10.927L-0.263672 17.1119Z" fill="#FBBC05"/>
</g>
</g>
<mask id="mask2_1283_13099" style="mask-type:luminance" maskUnits="userSpaceOnUse" x="0" y="0" width="22" height="11">
<path d="M0.6875 0.454102H21.1467V10.9294H0.6875V0.454102Z" fill="white"/>
</mask>
<g mask="url(#mask2_1283_13099)">
<mask id="mask3_1283_13099" style="mask-type:luminance" maskUnits="userSpaceOnUse" x="0" y="0" width="22" height="22">
<path d="M20.9088 9.02358H11.155V13.0675H16.7694C16.246 15.6366 14.0574 17.1115 11.155 17.1115C7.72931 17.1115 4.96968 14.3521 4.96968 10.9266C4.96968 7.50114 7.72931 4.74174 11.155 4.74174C12.63 4.74174 13.9622 5.2651 15.0089 6.12144L18.054 3.07663C16.1984 1.45904 13.8195 0.459961 11.155 0.459961C5.3503 0.459961 0.6875 5.12236 0.6875 10.9266C0.6875 16.7308 5.3503 21.3933 11.155 21.3933C16.3888 21.3933 21.1467 17.5872 21.1467 10.9266C21.1467 10.3081 21.0516 9.64203 20.9088 9.02358Z" fill="white"/>
</mask>
<g mask="url(#mask3_1283_13099)">
<path d="M-0.263672 4.74213L7.82485 10.927L11.1554 8.02488L22.5745 6.1694V-0.491211H-0.263672V4.74213Z" fill="#EA4335"/>
</g>
</g>
<mask id="mask4_1283_13099" style="mask-type:luminance" maskUnits="userSpaceOnUse" x="0" y="0" width="22" height="22">
<path d="M0.6875 0.454102H21.1467V21.395H0.6875V0.454102Z" fill="white"/>
</mask>
<g mask="url(#mask4_1283_13099)">
<mask id="mask5_1283_13099" style="mask-type:luminance" maskUnits="userSpaceOnUse" x="0" y="0" width="22" height="22">
<path d="M20.9088 9.02358H11.155V13.0675H16.7694C16.246 15.6366 14.0574 17.1115 11.155 17.1115C7.72931 17.1115 4.96968 14.3521 4.96968 10.9266C4.96968 7.50114 7.72931 4.74174 11.155 4.74174C12.63 4.74174 13.9622 5.2651 15.0089 6.12144L18.054 3.07663C16.1984 1.45904 13.8195 0.459961 11.155 0.459961C5.3503 0.459961 0.6875 5.12236 0.6875 10.9266C0.6875 16.7308 5.3503 21.3933 11.155 21.3933C16.3888 21.3933 21.1467 17.5872 21.1467 10.9266C21.1467 10.3081 21.0516 9.64203 20.9088 9.02358Z" fill="white"/>
</mask>
<g mask="url(#mask5_1283_13099)">
<path d="M-0.263672 17.1119L14.0102 6.1694L17.769 6.64518L22.5745 -0.491211V22.3452H-0.263672V17.1119Z" fill="#34A853"/>
</g>
</g>
<mask id="mask6_1283_13099" style="mask-type:luminance" maskUnits="userSpaceOnUse" x="5" y="4" width="17" height="18">
<path d="M5.91602 4.73633H21.1483V21.3939H5.91602V4.73633Z" fill="white"/>
</mask>
<g mask="url(#mask6_1283_13099)">
<mask id="mask7_1283_13099" style="mask-type:luminance" maskUnits="userSpaceOnUse" x="0" y="0" width="22" height="22">
<path d="M20.9108 9.0226H11.157V13.0665H16.7714C16.248 15.6356 14.0593 17.1105 11.157 17.1105C7.73126 17.1105 4.97163 14.3511 4.97163 10.9256C4.97163 7.50017 7.73126 4.74076 11.157 4.74076C12.6319 4.74076 13.9642 5.26412 15.0109 6.12046L18.056 3.07565C16.2004 1.45806 13.8215 0.458984 11.157 0.458984C5.35225 0.458984 0.689453 5.12139 0.689453 10.9256C0.689453 16.7299 5.35225 21.3923 11.157 21.3923C16.3907 21.3923 21.1487 17.5862 21.1487 10.9256C21.1487 10.3071 21.0535 9.64106 20.9108 9.0226Z" fill="white"/>
</mask>
<g mask="url(#mask7_1283_13099)">
<path d="M22.5766 22.3453L7.827 10.927L5.92383 9.4998L22.5766 4.74219V22.3453Z" fill="#4285F4"/>
</g>
</g>
</g>
<defs>
<clipPath id="clip0_1283_13099">
<rect width="21.8539" height="21.8539" fill="white"/>
</clipPath>
</defs>
</svg>
