<svg viewBox="0 0 30 30" fill="none" xmlns="http://www.w3.org/2000/svg">
<path d="M10.875 22.6432H19.125H24.0612C24.5879 22.6432 24.8519 22.6432 25.065 22.5703C25.2655 22.501 25.4476 22.3855 25.5971 22.2326C25.7466 22.0798 25.8596 21.8938 25.9271 21.6891C26 21.4702 26 21.2009 26 20.6593C26 20.4221 26 20.3043 25.9808 20.1906C25.9468 19.9782 25.8654 19.7765 25.7429 19.6013C25.6769 19.5073 25.5944 19.4231 25.4307 19.2562L24.8945 18.709C24.809 18.6216 24.7412 18.5179 24.6949 18.4038C24.6487 18.2897 24.6249 18.1674 24.625 18.0439V12.8216C24.625 11.5318 24.376 10.2547 23.8923 9.06304C23.4086 7.87143 22.6997 6.78871 21.8059 5.87668C20.9121 4.96466 19.8511 4.24121 18.6833 3.74763C17.5156 3.25404 16.264 3 15 3C13.736 3 12.4844 3.25404 11.3167 3.74763C10.1489 4.24121 9.08786 4.96466 8.1941 5.87668C7.30033 6.78871 6.59136 7.87143 6.10766 9.06304C5.62396 10.2547 5.375 11.5318 5.375 12.8216V18.0439C5.37509 18.1674 5.35133 18.2897 5.30509 18.4038C5.25885 18.5179 5.19103 18.6216 5.1055 18.709L4.56925 19.2562C4.40425 19.4245 4.32313 19.5073 4.2585 19.5999C4.13479 19.7753 4.05244 19.9774 4.01788 20.1906C4 20.3029 4 20.4221 4 20.6593C4 21.2009 4 21.4702 4.0715 21.6891C4.13933 21.8941 4.25269 22.0803 4.40273 22.2331C4.55276 22.386 4.7354 22.5014 4.93638 22.5703C5.1495 22.6432 5.41212 22.6432 5.93875 22.6432H10.875Z" stroke="currentColor" stroke-width="1.3" stroke-linecap="round" stroke-linejoin="round"/>
<path d="M17.748 27.1071C17.0187 27.6788 16.0295 28 14.998 28C13.9666 28 12.9774 27.6788 12.248 27.1071" stroke="currentColor" stroke-width="1.3" stroke-linecap="round" stroke-linejoin="round"/>
</svg>
