<svg width="24" height="24" viewBox="0 0 24 24" fill="none" xmlns="http://www.w3.org/2000/svg">
<path d="M10.2488 2.5H13.7126C13.9412 2.49527 14.1644 2.57006 14.3445 2.71094C14.5218 2.84973 14.6412 3.04317 14.6833 3.25293V3.25586L14.9578 4.5752C15.0543 5.03881 15.3608 5.40983 15.7488 5.62305C15.7851 5.64298 15.8212 5.66311 15.8572 5.68359C16.2292 5.89552 16.6879 5.96618 17.1228 5.82324L18.4558 5.38379C18.5882 5.34086 18.7285 5.32704 18.8669 5.34082C19.0052 5.35462 19.1394 5.39587 19.2605 5.46387V5.46484C19.4071 5.54777 19.5297 5.66739 19.6169 5.81055V5.81152L21.3523 8.67773L21.3591 8.6875C21.4767 8.87163 21.5231 9.09264 21.49 9.30859C21.4651 9.47046 21.3969 9.62152 21.2937 9.74609L21.1765 9.86328L20.115 10.7676C19.7807 11.0526 19.5876 11.4699 19.5876 11.9092V12.0957C19.5877 12.5237 19.771 12.9312 20.0906 13.2158L21.1462 14.1562C21.15 14.1596 21.1541 14.1628 21.158 14.166C21.323 14.3038 21.4339 14.4969 21.4695 14.709C21.5049 14.9208 21.4633 15.1384 21.3523 15.3223L21.3484 15.3281L19.6716 18.1924C19.5869 18.3341 19.467 18.4514 19.323 18.5322C19.1711 18.6163 19.0005 18.661 18.8269 18.6621C18.7199 18.6628 18.6136 18.6461 18.5115 18.6143L17.1882 18.1787C16.7543 18.0355 16.2972 18.1047 15.9255 18.3145C15.8887 18.3352 15.8514 18.3558 15.8142 18.376C15.4228 18.5889 15.1122 18.9614 15.0154 19.4287L14.7439 20.7432C14.6989 20.9591 14.5781 21.1516 14.4041 21.2871L14.4031 21.2881C14.223 21.429 13.9999 21.5038 13.7712 21.499H10.2781C10.0495 21.5037 9.82626 21.429 9.64624 21.2881L9.52612 21.1758C9.41714 21.0542 9.34091 20.9049 9.30737 20.7432L9.03296 19.4219C8.93702 18.9607 8.63256 18.5901 8.24487 18.377C8.20719 18.3562 8.16994 18.3347 8.13257 18.3135C7.76042 18.1016 7.30265 18.034 6.86987 18.1768L5.53882 18.6143C5.43699 18.6459 5.33101 18.6618 5.22437 18.6611C5.05128 18.6598 4.88071 18.616 4.72925 18.5322C4.58454 18.4512 4.46357 18.3329 4.37866 18.1904L4.37671 18.1875L2.64038 15.3213L2.63647 15.3154C2.52058 15.1298 2.47583 14.9083 2.51147 14.6924C2.54335 14.4994 2.63754 14.3228 2.77808 14.1885C2.83003 14.1388 2.9047 14.0663 2.97339 13.9795L4.14722 12.4961C4.31271 12.287 4.40308 12.0284 4.40308 11.7617C4.40307 11.424 4.25876 11.1026 4.00659 10.8779L2.84546 9.84277L2.83276 9.83301L2.71948 9.71973C2.61727 9.59771 2.54893 9.44986 2.52222 9.29102C2.48666 9.07896 2.5273 8.85985 2.63843 8.67578L4.37573 5.81348L4.37769 5.80859C4.46245 5.66584 4.58352 5.54806 4.72827 5.4668C4.87989 5.3829 5.05011 5.33819 5.22339 5.33691C5.23269 5.33685 5.24242 5.33652 5.25171 5.33594C5.35475 5.32946 5.45798 5.33926 5.55835 5.36328L6.81616 5.80566C7.25589 5.96011 7.72432 5.89439 8.10425 5.68066C8.13851 5.66139 8.17323 5.64182 8.20776 5.62305C8.59862 5.41041 8.9076 5.03823 9.00464 4.57227L9.27808 3.25586C9.31162 3.09407 9.38782 2.94484 9.49683 2.82324L9.61694 2.71094C9.79694 2.57003 10.0202 2.49538 10.2488 2.5Z" stroke="#333333" stroke-linejoin="round"/>
<path d="M15.8448 11.9982C15.8448 13.0182 15.4396 13.9964 14.7184 14.7177C13.9971 15.4389 13.0189 15.8441 11.9989 15.8441C10.979 15.8441 10.0007 15.4389 9.27951 14.7177C8.55827 13.9964 8.15308 13.0182 8.15308 11.9982C8.15308 10.9782 8.55827 10 9.27951 9.27877C10.0007 8.55753 10.979 8.15234 11.9989 8.15234C13.0189 8.15234 13.9971 8.55753 14.7184 9.27877C15.4396 10 15.8448 10.9782 15.8448 11.9982Z" stroke="#333333"/>
</svg>
